<svg version="1.1" id="Ebene_1" xmlns="http://www.w3.org/2000/svg" x="0" y="0" viewBox="0 0 250 55" style="enable-background:new 0 0 250 55" xml:space="preserve"><style>.st1{fill:#fff}</style><g id="WO_x5F_Logo"><path d="M153.76 30.4c-.82.25-1.67.46-2.56.55-.05-1.43-.39-2.93-1.03-4.48.33 1.73.43 3.22.37 4.53-1 .06-2.02.01-3.07-.16.06-1.54-.23-3.19-.86-4.9.29 1.83.32 3.41.19 4.76-1.57-.34-3.18-.95-4.8-1.93 1.29 1.21 2.91 2.01 4.73 2.43-.19 1.44-.59 2.62-1.1 3.6-1.47-.36-2.96-.96-4.46-1.87 1.16 1.1 2.59 1.86 4.21 2.31-.79 1.34-1.78 2.31-2.71 3.04 1.45-.77 2.56-1.76 3.34-2.9 1.05.23 2.16.34 3.31.32-.75 1.43-1.73 2.45-2.66 3.24 1.52-.88 2.63-1.98 3.39-3.25.98-.06 2-.22 3.04-.45-1.34 3.2-4.39 5.49-8.1 5.61-5.14.18-9.31-3.86-9.5-9-.18-5.14 3.7-9.46 8.84-9.64 4.88-.16 8.86 3.45 9.43 8.19m-4.16 4.78c-1.07.06-2.18-.01-3.32-.23a8.35 8.35 0 0 0 1.16-3.62c.98.16 2 .24 3.06.2-.12 1.45-.45 2.64-.9 3.65m1.6-3.66c.86-.06 1.73-.22 2.62-.41 0 .04.01.08.01.11a9.68 9.68 0 0 1-.44 3.2c-.96.33-1.98.58-3.04.69.53-1.09.82-2.3.85-3.59m5.39-.34c-.23-6.57-5.77-11.73-12.33-11.5-6.57.23-11.74 5.77-11.5 12.33.23 6.57 5.77 11.73 12.34 11.5 6.55-.23 11.71-5.76 11.49-12.33" style="fill:#fcbd10"/><path class="st1" d="M238.4 39.81c-5.94 0-6.95-6.44-6.95-6.44h16.26c.81 0 1.51-.65 1.51-1.51 0-6.7-4.28-11.98-10.83-11.98s-10.83 5.29-10.83 11.84 4.28 11.84 10.83 11.84c4.28 0 7.5-2.11 9.27-4.18.3-.36.46-.65.46-1.06 0-.41-.15-.75-.46-1.06l-.5-.5c-.3-.3-.7-.45-1.06-.45-.4 0-.75.15-1.06.45-1.46 1.64-3.72 3.05-6.64 3.05m-6.96-9.67c.81-3.63 2.82-6.65 6.95-6.65 4.13 0 6.15 3.02 6.95 6.65h-13.9zm-23.31-6.9v-.86c0-.86-.7-1.51-1.51-1.51h-.7c-.81 0-1.51.65-1.51 1.51v18.64c0 .86.7 1.51 1.51 1.51h.7c.81 0 1.51-.65 1.51-1.51V28.43c1.51-3.12 3.63-4.73 5.99-4.73 4.38 0 5.39 4.68 5.39 8.16v9.17c0 .86.7 1.51 1.51 1.51h.7c.81 0 1.51-.65 1.51-1.51V30.84c0-6.5-2.52-10.78-9.12-10.78-2.11 0-4.22 1.17-5.98 3.18m-13.1 17.78V22.38c0-.86.7-1.51 1.51-1.51h.7c.81 0 1.51.65 1.51 1.51v18.64c0 .86-.7 1.51-1.51 1.51h-.7c-.8 0-1.51-.66-1.51-1.51m-.4-25.34c0 1.26 1.01 2.26 2.26 2.26s2.26-1.01 2.26-2.26-1.01-2.26-2.26-2.26c-1.25 0-2.26 1.01-2.26 2.26m-9.17 25.34c0 .86.7 1.51 1.51 1.51h.7c.81 0 1.51-.65 1.51-1.51V8.28c0-.86-.7-1.51-1.51-1.51h-.7c-.81 0-1.51.65-1.51 1.51v32.74zm-20.89-17.78v-.86c0-.86-.7-1.51-1.51-1.51h-.7c-.81 0-1.51.65-1.51 1.51v18.64c0 .86.7 1.51 1.51 1.51h.7c.81 0 1.51-.65 1.51-1.51V28.43c1.51-3.12 3.63-4.73 5.99-4.73 4.38 0 5.39 4.68 5.39 8.16v9.17c0 .86.7 1.51 1.51 1.51h.7c.81 0 1.51-.65 1.51-1.51V30.84c0-6.5-2.52-10.78-9.12-10.78-2.11 0-4.22 1.17-5.98 3.18M127.47 23.48c.41 0 1.06.1 1.36.1.55 0 .96-.45 1.21-1.06l.25-.91s.1-.36.1-.5c0-.7-.5-1.11-1.06-1.21 0 0-.86-.15-1.92-.15-3.07 0-4.99 1.41-6.75 3.02v-.5c0-.86-.7-1.51-1.51-1.51h-.7c-.81 0-1.51.65-1.51 1.51V40.9c0 .86.7 1.51 1.51 1.51h.7c.81 0 1.51-.65 1.51-1.51V28.21c1.22-3.53 4.2-4.73 6.81-4.73m-25.98 16.21c-5.94 0-6.95-6.44-6.95-6.44h16.26c.81 0 1.51-.65 1.51-1.51 0-6.7-4.28-11.99-10.83-11.99s-10.83 5.29-10.83 11.84 4.28 11.84 10.83 11.84c4.28 0 7.5-2.11 9.27-4.18.3-.35.45-.65.45-1.06 0-.4-.15-.75-.45-1.06l-.5-.5c-.3-.3-.7-.45-1.06-.45-.41 0-.75.15-1.06.45-1.45 1.65-3.73 3.06-6.64 3.06m-6.96-9.67c.81-3.63 2.82-6.65 6.95-6.65 4.13 0 6.15 3.02 6.95 6.65h-13.9zm-8.51 12.8c.86 0 1.51-.6 1.51-1.41v-.7c0-.81-.6-1.26-1.51-1.51-2.47-.65-4.73-2.07-4.73-4.78V24.23h4.73c.86 0 1.51-.7 1.51-1.51v-.45c0-.81-.65-1.51-1.51-1.51h-4.73v-5.95c0-.86-.7-1.51-1.51-1.51h-.7c-.81 0-1.51.65-1.51 1.51v5.94H75.6c-.86 0-1.51.7-1.51 1.51v.45c0 .81.65 1.51 1.51 1.51h1.97v9.72c0 7.87 7.14 8.88 8.45 8.88m-15.51 0c.86 0 1.51-.6 1.51-1.41v-.7c0-.81-.6-1.26-1.51-1.51-2.47-.65-4.73-2.07-4.73-4.78V24.23h4.73c.86 0 1.51-.7 1.51-1.51v-.45c0-.81-.65-1.51-1.51-1.51h-4.73v-5.95c0-.86-.7-1.51-1.51-1.51h-.7c-.81 0-1.51.65-1.51 1.51v5.94h-1.97c-.86 0-1.51.7-1.51 1.51v.45c0 .81.65 1.51 1.51 1.51h1.97v9.72c-.01 7.87 7.14 8.88 8.45 8.88m-24.67-3.13c-5.94 0-6.95-6.44-6.95-6.44h16.26c.81 0 1.51-.65 1.51-1.51 0-6.7-4.28-11.99-10.83-11.99S35 25.04 35 31.58s4.28 11.84 10.83 11.84c4.28 0 7.5-2.11 9.27-4.18.3-.35.46-.65.46-1.06 0-.4-.15-.75-.46-1.06l-.5-.5c-.3-.3-.7-.45-1.06-.45-.4 0-.75.15-1.06.45-1.46 1.66-3.72 3.07-6.64 3.07m-6.96-9.67c.81-3.63 2.82-6.65 6.95-6.65s6.15 3.02 6.95 6.65h-13.9zm-22.21-9.76c-.25 0-.55.3-.81.91L10.68 33.7l-.4 2.02-.46-2.02-4.83-11.43c-.36-.75-.96-1.51-2.06-1.51h-.86c-.7 0-1.36.05-1.36.65 0 .3.25.86.25.86l8.72 19.74s.41.91.6.91c.2 0 .6-.91.6-.91l5.34-12.54.46-2.02.45 2.02 5.34 12.54s.4.91.6.91c.2 0 .6-.91.6-.91l8.72-19.74s.25-.55.25-.86c0-.6-.65-.65-1.36-.65h-.86c-1.11 0-1.71.75-2.06 1.51L23.54 33.7l-.45 2.02-.41-2.02-5.18-12.54c-.27-.61-.57-.9-.83-.9"/></g></svg>